PathFileType	4	(X/Y/Z)	C:\Users\alexw\Dropbox\ABI\Level_8_Lab\OpenSim Tools\ProcessingTrialDataFromVicon\Output\AB08\_12Mar_ss_12ms_01\_12Mar_ss_12ms_01.trc
DataRate	CameraRate	NumFrames	NumMarkers	Units	OrigDataRate	OrigDataStartFrame	OrigNumFrames
200.000000	200.000000	6	42	mm	200.000000	5336	6093
Frame#	Time	LASI			RASI			LPSI			RPSI			LTH1			LTH2			LTH3			LTH4			LMFC			LLFC			LTB1			LTB2			LTB3			LTB4			LMMAL			LLMAL			LCAL			LToe			LMT1			LMT5			RTH1			RTH2			RTH3			RTH4			RMFC			RLFC			RTB1			RTB2			RTB3			RTB4			RMMAL			RLMAL			RCAL			RToe			RMT1			RMT5			C7			T10			LACR1			RACR1			CLAV			RBack			
		X1	Y1	Z1	X2	Y2	Z2	X3	Y3	Z3	X4	Y4	Z4	X5	Y5	Z5	X6	Y6	Z6	X7	Y7	Z7	X8	Y8	Z8	X9	Y9	Z9	X10	Y10	Z10	X11	Y11	Z11	X12	Y12	Z12	X13	Y13	Z13	X14	Y14	Z14	X15	Y15	Z15	X16	Y16	Z16	X17	Y17	Z17	X18	Y18	Z18	X19	Y19	Z19	X20	Y20	Z20	X21	Y21	Z21	X22	Y22	Z22	X23	Y23	Z23	X24	Y24	Z24	X25	Y25	Z25	X26	Y26	Z26	X27	Y27	Z27	X28	Y28	Z28	X29	Y29	Z29	X30	Y30	Z30	X31	Y31	Z31	X32	Y32	Z32	X33	Y33	Z33	X34	Y34	Z34	X35	Y35	Z35	X36	Y36	Z36	X37	Y37	Z37	X38	Y38	Z38	X39	Y39	Z39	X40	Y40	Z40	X41	Y41	Z41	X42	Y42	Z42	

5336	26.67	343.17480	922.39929	-879.53998	601.64502	939.94147	-907.90814	448.93771	954.55988	-667.54608	569.03259	947.19458	-679.88629	338.18735	633.79700	-827.11719	330.41641	609.01782	-796.85242	377.61417	563.68365	-786.09674	359.43921	595.13312	-806.98206	457.77954	491.46954	-688.76501	332.93582	506.01584	-659.54675	314.50378	422.32697	-596.05157	317.93848	354.53271	-545.69196	336.07123	326.80399	-588.46509	327.78699	364.61057	-602.14935	439.73053	158.32007	-452.26611	351.53540	161.02180	-433.10901	394.68793	124.79014	-336.83130	411.54669	34.04084	-617.37366	437.86047	47.97690	-529.42804	317.17764	42.02687	-511.08105	599.39594	717.27588	-1020.08970	585.54230	652.72760	-1033.12060	630.61481	616.93347	-1010.50870	639.83344	673.90509	-1001.79430	497.98215	513.44775	-1028.02920	625.24365	512.62677	-996.91138	631.57709	405.96185	-1041.05530	619.95129	375.22668	-1063.86820	608.74426	329.78070	-1083.54420	635.04877	316.85126	-1038.32400	523.88397	128.26010	-1115.31980	606.90649	108.48164	-1080.02360	546.66479	53.04331	-1022.16650	577.25873	76.41395	-1321.43200	539.30908	60.85847	-1233.43600	647.58630	57.96186	-1201.97120	464.60406	1456.50340	-752.60309	461.88934	1206.10990	-674.47028	300.42862	1425.35580	-826.66986	626.22784	1417.56370	-800.68500	473.50369	1377.13010	-902.83807	578.37366	1353.51120	-685.91516
5337	26.675	344.31516	921.90948	-881.25958	602.47211	940.10364	-909.18542	449.63391	954.76422	-667.89886	570.15204	947.71466	-681.12543	338.28458	633.85236	-828.59619	330.22055	608.98004	-798.53931	377.42950	563.42346	-787.79089	359.53485	595.01263	-808.57922	457.59207	491.05603	-690.32831	332.62836	505.94986	-661.03632	314.12772	422.69128	-596.91803	317.58673	355.48721	-545.63074	335.72278	327.27713	-587.95947	327.51740	364.94284	-602.23492	439.14063	160.42334	-449.44394	351.06021	163.74280	-430.28748	394.63501	129.58441	-333.08853	411.48444	34.06937	-611.17810	437.88205	47.88788	-523.74341	317.34686	42.32394	-505.60736	600.15137	717.79529	-1020.62610	586.18182	653.54749	-1034.42850	631.19470	617.27966	-1011.20230	640.54565	674.31586	-1002.44460	498.55835	512.55518	-1025.84850	627.01874	512.99481	-997.42047	632.99927	406.67496	-1042.08260	620.83978	375.43054	-1064.30430	609.31763	329.70059	-1083.46500	636.43445	317.21423	-1038.43460	524.28143	126.98469	-1112.02090	607.34265	107.95106	-1075.65610	547.01575	53.85281	-1017.01820	578.95221	71.93240	-1316.22550	540.36975	58.22940	-1228.76150	648.82275	55.34695	-1196.46460	465.52829	1456.36210	-752.58203	462.61731	1205.73390	-675.21301	301.09595	1425.22790	-826.51996	627.20081	1417.31040	-800.57300	474.48132	1377.49730	-902.98798	579.30853	1352.90700	-686.10162
5338	26.68	345.55164	921.61621	-883.03650	603.37024	940.27545	-910.36377	450.11618	954.77246	-669.18085	571.14825	948.31873	-682.20746	338.22067	633.72577	-830.54437	330.41626	609.00281	-800.32623	377.32993	563.24298	-789.61993	359.67538	595.04993	-810.43823	457.34280	490.64502	-692.32465	332.32449	505.90134	-662.92395	313.67389	422.99438	-597.94391	317.08081	356.55911	-545.74188	335.20566	327.75885	-587.67804	327.02621	365.16083	-602.41815	438.58615	162.69177	-446.97916	350.55179	166.54080	-427.69266	394.48001	134.41364	-330.07520	411.55048	34.06045	-604.92413	438.20142	47.66761	-518.42822	317.47031	42.76423	-500.19705	600.82703	718.45123	-1020.97550	586.82043	654.29620	-1035.00520	631.80164	617.93018	-1011.99510	641.27521	674.94360	-1003.15620	499.21603	511.73495	-1023.61740	628.99927	513.59314	-998.41309	633.78748	406.72595	-1043.01200	621.57043	375.51563	-1064.79030	609.91541	329.57559	-1083.40430	637.85095	317.54926	-1038.80690	524.38354	125.94573	-1107.95360	607.65289	107.37472	-1070.97860	547.26117	54.62820	-1011.68850	580.44196	68.55521	-1311.18410	541.14148	55.97733	-1223.80160	650.01532	53.25037	-1190.84110	466.46695	1456.32570	-752.58002	463.24469	1205.43260	-675.84613	301.74289	1425.20960	-826.53186	628.18756	1417.13480	-800.54639	475.31253	1377.89500	-903.10126	580.27393	1352.45200	-686.16760
5339	26.685	346.90732	921.55914	-884.84540	604.22797	940.48083	-911.36658	450.75616	954.84546	-670.65094	572.19128	948.94495	-683.35010	338.62256	633.99341	-832.49298	330.63062	609.16528	-802.28290	377.29385	563.21216	-791.93176	359.71884	594.70795	-812.63531	457.03040	490.16019	-694.48395	331.87457	505.76956	-665.13190	313.03244	423.35687	-599.43854	316.67047	357.67050	-546.18201	334.63016	328.14316	-587.78711	326.52893	365.40714	-603.00476	437.80856	164.82263	-444.72803	349.98126	169.32036	-425.36850	394.41187	139.54559	-327.08307	411.63840	33.95821	-598.66736	438.64194	47.48399	-513.10669	317.53476	43.30557	-494.89816	601.31012	719.32166	-1021.17410	587.43939	655.27448	-1035.67880	632.85144	618.96100	-1013.06880	641.86743	675.81635	-1003.80910	500.10574	511.17999	-1021.59530	630.91980	514.45233	-999.80231	634.65985	406.97043	-1044.22290	622.23090	375.42279	-1065.45810	610.50885	329.45322	-1083.34280	639.10974	317.88626	-1039.05630	524.44159	125.20596	-1103.40150	607.86597	106.96075	-1066.13510	547.59314	55.32755	-1006.21190	581.33606	65.02480	-1305.83870	541.57855	53.87156	-1218.74330	650.98334	51.62814	-1185.04580	467.35675	1456.36630	-752.63092	463.86185	1205.25370	-676.43939	302.49652	1425.24330	-826.52368	629.07361	1417.04550	-800.43964	476.21277	1378.38770	-903.21838	581.22070	1352.08140	-686.37317
5340	26.69	348.24039	921.53314	-886.64685	605.02039	940.70398	-912.21289	451.07077	954.98706	-672.17737	573.06708	949.72321	-684.28595	339.06683	634.44482	-834.48816	330.82135	609.40790	-804.39838	377.21011	563.22559	-794.43549	359.65564	595.04468	-815.12872	456.64713	489.65875	-697.05762	331.27020	505.56750	-667.74976	312.40408	423.67490	-601.16010	316.08414	358.79526	-546.94733	334.12839	328.66660	-588.12439	325.69479	365.63275	-603.86957	437.08499	166.81094	-443.06088	349.31339	172.21590	-423.07550	394.35883	144.92062	-324.76465	411.81866	34.07570	-592.53424	439.11902	47.24402	-507.82077	317.81042	43.81475	-489.65897	601.83386	720.51819	-1021.54750	588.18500	656.09595	-1035.71500	633.92261	620.17590	-1014.51310	642.68713	676.95935	-1004.84810	501.45966	510.92715	-1019.88560	632.84387	515.53027	-1001.68010	635.57031	407.16565	-1045.38020	622.89484	375.36334	-1066.03080	611.04230	329.15631	-1083.15160	640.42511	318.23172	-1039.09440	524.37250	124.81628	-1098.49460	607.98364	106.60971	-1061.23220	547.76514	55.94797	-1000.39950	581.78607	61.51025	-1300.57340	541.59863	51.85168	-1213.41420	651.64343	50.22994	-1179.40230	468.20181	1456.54910	-752.72253	464.43738	1204.92110	-678.33325	303.17230	1425.38820	-826.54840	629.97961	1417.07890	-800.36969	477.03909	1379.03650	-903.32147	582.09338	1351.90470	-686.49731
5341	26.695	349.66736	921.66168	-888.42419	605.87006	940.88257	-912.79150	451.31036	955.18030	-673.66663	573.99689	950.52985	-685.41095	339.27228	634.75031	-836.94092	331.04901	609.81091	-807.01727	377.03195	563.14148	-797.18628	359.85138	595.24030	-817.63428	456.09131	489.14145	-699.92267	330.45822	505.32932	-670.64398	311.65396	423.87469	-603.09235	315.33475	359.87686	-547.96814	333.29947	329.11819	-588.69324	325.06973	365.92178	-605.02332	436.34909	169.06761	-441.46082	348.53467	175.27089	-421.00656	394.41568	150.40340	-322.61172	411.89468	34.22137	-586.36920	439.55295	47.08546	-502.53226	318.09647	44.33207	-484.43924	602.19891	721.69189	-1021.80930	589.01813	657.65424	-1037.25110	635.24805	621.63049	-1016.09640	643.44318	678.36145	-1006.10680	502.97546	511.26791	-1018.77030	634.66113	516.72168	-1003.83610	637.15869	407.67358	-1046.95700	623.48132	375.21432	-1066.47600	611.46716	328.75851	-1082.81040	641.60083	318.48917	-1038.93100	524.46100	124.60379	-1093.38430	607.84082	106.88690	-1056.00100	548.02740	56.51179	-994.69104	581.68439	57.95608	-1295.31190	541.05310	49.91785	-1208.05130	652.10809	49.14039	-1173.98380	469.01776	1456.84330	-752.86566	465.02640	1205.13660	-677.56091	303.90344	1425.59920	-826.51874	630.87195	1417.26840	-800.29102	477.96097	1379.70730	-903.44397	583.10352	1351.73650	-686.65735
